<?xml version="1.0" encoding="utf-8"?>
<!-- Generator: Adobe Illustrator 27.5.0, SVG Export Plug-In . SVG Version: 6.00 Build 0)  -->
<svg version="1.1" xmlns="http://www.w3.org/2000/svg" xmlns:xlink="http://www.w3.org/1999/xlink" x="0px" y="0px"
	 viewBox="0 0 500 500" style="enable-background:new 0 0 500 500;" xml:space="preserve">
<g id="BACKGROUND">
	<rect style="fill:#F9F9F9;" width="500" height="500"/>
</g>
<g id="OBJECTS">
	<g>
		<g>
			<path style="fill:#9BB9B9;" d="M353.143,406l8.206,28.732c0,0,5.96,7.435,8.695,14.425h-46.5l8.014-11.872L325.29,406H353.143z"
				/>
			<path style="fill:#233332;" d="M331.557,437.285l-8.014,11.872h46.5c-2.735-6.99-8.695-14.425-8.695-14.425
				C338.749,428.437,331.557,437.285,331.557,437.285z"/>
			<path style="fill:#9BB9B9;" d="M323.544,449.156c0,0,6.983-12.398,24.65-10.201c17.667,2.197,21.85,10.201,21.85,10.201H323.544z
				"/>
			
				<line style="fill:none;stroke:#F9F9F9;stroke-linecap:round;stroke-linejoin:round;stroke-miterlimit:10;" x1="333.877" y1="420.578" x2="335.762" y2="434.473"/>
			
				<line style="fill:none;stroke:#F9F9F9;stroke-linecap:round;stroke-linejoin:round;stroke-miterlimit:10;" x1="343.127" y1="420.578" x2="345.117" y2="432.506"/>
			
				<line style="fill:none;stroke:#F9F9F9;stroke-linecap:round;stroke-linejoin:round;stroke-miterlimit:10;" x1="352.377" y1="420.578" x2="354.247" y2="433.144"/>
		</g>
		<g>
			<g>
				<path style="fill:#9BB9B9;" d="M253.71,401.578l2,31.513c0,0-18.333,8.154-21.333,15.821h49.881v-47.333H253.71z"/>
				<g>
					<path style="fill:#233332;" d="M284.259,437.854c-5.381,4.355-11.507,2.266-15.548,1.221c-2.681-0.693-8.618-4.318-13.118-5.93
						c-1.495,0.677-18.349,8.442-21.215,15.767h49.882V437.854z"/>
					<path style="fill:#9BB9B9;" d="M252.38,445.888c-0.467-3.25-5.04-5.776-7.551-6.933c-4.543,2.876-9.086,6.465-10.452,9.956
						h49.882v-3.023H252.38z"/>
				</g>
			</g>
			
				<line style="fill:none;stroke:#F9F9F9;stroke-linecap:round;stroke-linejoin:round;stroke-miterlimit:10;" x1="259.318" y1="420.578" x2="259.318" y2="435.078"/>
			
				<line style="fill:none;stroke:#F9F9F9;stroke-linecap:round;stroke-linejoin:round;stroke-miterlimit:10;" x1="269.127" y1="420.578" x2="269.127" y2="439.184"/>
			
				<line style="fill:none;stroke:#F9F9F9;stroke-linecap:round;stroke-linejoin:round;stroke-miterlimit:10;" x1="278.794" y1="420.578" x2="277.794" y2="440.449"/>
		</g>
		<g>
			<path style="fill:#4D60A4;" d="M252.877,243.245c0,0-9.887,89.333-6.86,117.333c3.027,28,4.1,60,4.1,60h41.26
				c0,0,3-34.333-2.025-60.797l2.03-40.869l29.995,101.667h40.333c0,0,4.167-35-13.333-65
				c-7.521-12.893-4.667-68.833-25.333-112.333H252.877z"/>
			<path style="fill:#3C4A77;" d="M259.318,350.578c0-10.309-5.583-18.667-12.47-18.667c-0.37,0-0.734,0.035-1.096,0.083
				c-0.443,11.663-0.459,21.882,0.265,28.584c0.309,2.859,0.597,5.76,0.866,8.664C253.754,369.213,259.318,360.869,259.318,350.578z
				"/>
			<path style="fill:none;stroke:#3C4A77;stroke-linecap:round;stroke-linejoin:round;stroke-miterlimit:10;" d="M291.382,318.911
				c0,0-23.022-20.106-14.522-75.667"/>
			
				<ellipse transform="matrix(0.9824 -0.1869 0.1869 0.9824 -60.0373 65.9428)" style="fill:#3C4A77;" cx="319.618" cy="351.296" rx="10.917" ry="18"/>
			<path style="fill:none;stroke:#3C4A77;stroke-linecap:round;stroke-linejoin:round;stroke-miterlimit:10;" d="M269.11,243.245
				c0,0-8.459,40.907,7.896,45.109"/>
			<polyline style="fill:none;stroke:#3C4A77;stroke-linecap:round;stroke-linejoin:round;stroke-miterlimit:10;" points="
				309.86,243.245 320.047,282.93 337.031,288.353 			"/>
			<path style="fill:none;stroke:#3C4A77;stroke-linecap:round;stroke-linejoin:round;stroke-miterlimit:10;" d="M354.247,420.578
				c0,0-4.22-41.856-12.887-64.523c-8.667-22.667-11.383-69.954-11.383-69.954"/>
			<path style="fill:none;stroke:#3C4A77;stroke-linecap:round;stroke-linejoin:round;stroke-miterlimit:10;" d="M283.179,420.578
				l-5.118-59.42c-0.178-2.064-0.158-4.14,0.059-6.2l5.059-47.947"/>
		</g>
		<g>
			<path style="fill:#E6817D;" d="M256.46,88.49c-1.352-0.129-2.519,0.672-3.741,0.488c1.342-2.027,3.049-4.217,3.565-6.694
				c0.424-2.035,0.409-4.339,0.03-6.383c-0.111-0.596-0.803-2.801-1.793-2.345c-0.821,0.378-0.822,3.738-0.809,4.502
				c-0.268-1.541-0.263-3.108-0.876-4.564c-0.338-0.802-0.868-2.093-1.714-2.478c-1.666-0.759-0.919,3.154-0.656,4.037
				c-0.194-0.718-1.443-3.941-2.468-2.062c-0.885,1.622,0.527,4.156,0.07,5.845c-0.38-1.122-1.531-4.794-3.227-4.59
				c-1.243,0.149-0.411,2.362-0.196,3.183c0.256,0.977,0.715,2.389-0.092,3.213c-0.408,0.416-0.93,0.651-1.343,1.106
				c-0.481,0.53-0.848,1.071-1.246,1.662c-0.995,1.477-1.567,2.858-1.675,4.665c-0.001,0.016,0,0.03-0.001,0.046
				c-2.746,1.045-22.121,9.118-29.962,31.625c-8.449,24.25-6.949,31.266,3.801,38.758c4.842,3.375,13.993,10.856,22.592,18.061
				c2.824-10.173,6.75-24.376,8.966-32.625l-11.808-6.764c0,0,7.31-33.034,13.356-42.22c1.186-0.461,2.418-0.549,3.735-1.001
				c1.838-0.631,3.041-2.539,4.93-2.895c0.672-0.127,3.653,0.359,3.819-0.644C259.919,89.185,257.243,88.565,256.46,88.49z"/>
			<path style="fill:#AA3F37;" d="M233.877,137.174c0,0-14.986,6.999-24.923,16.925c1.379,1.534,3.103,2.96,5.173,4.403
				c4.842,3.375,13.993,10.856,22.592,18.061c2.824-10.173,6.75-24.376,8.966-32.625L233.877,137.174L233.877,137.174z"/>
			<path style="fill:none;stroke:#D85145;stroke-linecap:round;stroke-linejoin:round;stroke-miterlimit:10;" d="M242.544,90.244
				c0,0,1.684-5.867,10.175-1.267"/>
			<path style="fill:none;stroke:#D85145;stroke-linecap:round;stroke-linejoin:round;stroke-miterlimit:10;" d="M244.553,80.641
				c0,0,4.312-0.551,7.49,1.937"/>
		</g>
		<g>
			<path style="fill:#00918C;" d="M334.627,268.995c0,0-1.923-5.378-4.402-12.483l-3.13,13.431
				C332.871,266.712,334.627,268.995,334.627,268.995z"/>
			<path style="fill:#00918C;" d="M327.851,249.662c-4.074-11.831-8.474-25.083-8.474-27.122c0-3.795,0.802-9.319,0.802-9.319
				l9.448,23.274l31.372-10.798c-2.754-7.091-7.663-19.355-13.372-31.061c-7.75-15.891-19.25-29.725-40.75-32.661l-6.654-1.813
				l0.777-4.627l-25.041-1.999l-0.678,4.967l-41.404-21.328c-14.058,15.552-11.558,22.806-18.926,31.556
				c10.491,8.791,35.426,22.014,35.426,22.014s-1.75,28.126-1.75,48.209c0,11.791-5.188,22.041-5.188,22.041
				s15.565,11.75,30.251,14.25l9.649-12.25l3.537,17.5c0,0,20,6.75,32.25-4.5c1.467-1.348,2.798-2.461,4.016-3.396
				c1.486-1.141,2.802-2.012,3.952-2.656c5.775-3.23,7.532-0.948,7.532-0.948s-1.923-5.378-4.402-12.483
				C329.473,254.354,328.668,252.036,327.851,249.662z"/>
			<path style="fill:#3C4A77;" d="M275.959,153.535c0,0,5.117,4.929,11.393,5.902c0,0,1.522,0.804,13.649-3.903L275.959,153.535z"/>
			<path style="fill:none;stroke:#007F7A;stroke-linecap:round;stroke-linejoin:round;stroke-miterlimit:10;" d="M283.34,262.995
				c0,0-7.704-47.72,0-82.068c0,0,3.354-13.66,3.696-21.504"/>
			<path style="fill:none;stroke:#007F7A;stroke-linecap:round;stroke-linejoin:round;stroke-miterlimit:10;" d="M250.377,190.745
				c0,0,1.749-16.528,8.25-27"/>
			
				<line style="fill:none;stroke:#007F7A;stroke-linecap:round;stroke-linejoin:round;stroke-miterlimit:10;" x1="320.179" y1="213.22" x2="323.127" y2="187.995"/>
			
				<line style="fill:none;stroke:#007F7A;stroke-linecap:round;stroke-linejoin:round;stroke-miterlimit:10;" x1="224.651" y1="175.708" x2="241.774" y2="141.697"/>
			
				<line style="fill:none;stroke:#007F7A;stroke-linecap:round;stroke-linejoin:round;stroke-miterlimit:10;" x1="325.804" y1="227.078" x2="355.977" y2="213.22"/>
			
				<rect x="292.193" y="189.222" transform="matrix(0.9974 0.072 -0.072 0.9974 14.6083 -21.3071)" style="fill:none;stroke:#007F7A;stroke-linecap:round;stroke-linejoin:round;stroke-miterlimit:10;" width="21.305" height="5.5"/>
			<polyline style="fill:none;stroke:#007F7A;stroke-linecap:round;stroke-linejoin:round;stroke-miterlimit:10;" points="
				275.281,158.502 279.916,165.555 287.002,160.056 292.193,167.055 300.223,160.161 			"/>
		</g>
		<g>
			<path style="fill:#E6817D;" d="M361.581,228.5l-1.308-2.554l-26.328,9.08l0.932,1.521l-9.25,39.697l0.037,0.019
				c-1.117,2.127-3.597,2.745-5.787,3.204c-1.175,0.246-2.182,0.547-3.048,1.46c-1.355,1.428-1.228,3.429-2.275,5.006
				c-0.519,0.782-2.181,2.918,0.17,2.314c1.168-0.3,2.391-1.841,3.156-2.702c1.597-1.796,3.158-2.125,5.445-1.686
				c2.186,0.419,4.461,1.068,6.652,1.635c1.49,0.386,2.878,1.185,4.378,1.485c0.771-1.759,1.404-3.643,1.822-5.517
				c1.031-0.664,20.72-13.697,26.642-44.086C363.407,234.363,362.981,231.234,361.581,228.5z"/>
			<path style="fill:#AA3F37;" d="M361.581,228.5l-1.308-2.554l-26.328,9.08l0.882,1.44l27.723-5.469
				C362.308,230.14,361.992,229.302,361.581,228.5z"/>
		</g>
		<g>
			<path style="fill:#E6817D;" d="M282.342,142.513l-1.774,14.39c0,0,2.875,2.001,6.468,2.519c2.049,0.295,2.685,0.121,6.448-1.208
				v-14.652L282.342,142.513z"/>
			<path style="fill:#AA3F37;" d="M282.342,142.513l-0.773,6.266c2.359,5.202,11.914,5.465,11.914,5.465v-10.682L282.342,142.513z"
				/>
			<g>
				<path style="fill:#AA3F37;" d="M282.203,132.798c0,0-4.051-7.953-6.402-3.495c-1.955,3.707,1.945,7.761,6.047,6.931
					L282.203,132.798z"/>
				<path style="fill:#AA3F37;" d="M293.839,133.472c0,0,5.592-6.956,6.981-2.111c1.155,4.029-3.492,7.199-7.337,5.548
					L293.839,133.472z"/>
				<path style="fill:#233332;" d="M279.227,134.491c-1.461-1.078-2.036-3.377-2.214-5.08c-0.084-0.804-0.282-1.718-0.252-2.5
					c0.026-0.68,0.558-1.623,0.62-2.241c-2.12-0.268-1.443-3.413-0.689-4.595c1.494-2.34,3.532-3.872,6.263-4.438
					c1.485-0.308,3.01,0.076,4.491,0.274c-0.543-0.374-0.847-0.893-0.805-1.563c0.395,1.354,3.911,1.22,4.992,1.432
					c2.274,0.445,3.457,1.592,4.51,3.511c1.251-0.928,3.962,0.348,4.464,1.517c0.835,1.945,0.143,4.135-0.28,6.101
					c-0.493,2.295-0.128,5.537-1.488,7.502c-1.563,2.257-6.425,1.189-8.612,0.917c-2.604-0.324-5.26-0.951-7.901-0.839
					C281.55,134.522,280.154,134.376,279.227,134.491z"/>
				<path style="fill:#E6817D;" d="M297.988,127.762c0.039-1.07-0.89-1.93-1.95-1.782c-0.929,0.13-1.895,0.338-2.609,0.475
					c-0.465,0.089-1.197,0.636-1.571,0.661c-0.75,0.051-1.783-0.725-2.522-0.852c0.205,0.247,0.285,0.565,0.42,0.848
					c-2.817-0.657-5.83-1.364-8.694-2.009c-1.032-0.233-2.031,0.504-2.107,1.56c-0.152,2.13-0.285,5.11-0.26,5.481
					c0.818,12.534,1.217,14.118,8.702,15.314c7.485,1.196,9.493-7.472,9.885-11.271c0.086-0.831,0.117-1.888,0.4-3.401
					c0.061-0.327,0.095-0.66,0.099-0.992C297.792,130.857,297.938,129.13,297.988,127.762z"/>
				<path style="fill:#233332;" d="M278.644,133.658c0.264,0.286,0.083,1.855-0.002,2.412c-0.169,1.105-0.62,2.053-0.997,3.088
					c-0.87,2.387-0.983,4.954,0.583,7.127c2.337,3.243,7.702,3.915,11.337,3.185c1.754-0.352,3.879-0.87,5.179-2.162
					c1.204-1.197,1.823-2.88,2.231-4.497c0.6-2.378,1.027-5.491,0.424-7.874c-0.695,1.447-1.008,4.845-3.005,5.225
					c-1.876,0.357-2.137-1.5-3.269-2.317c-1.304-0.941-3.623-1.034-5.146-1.041c-1.212-0.006-2.261,0.284-3.252,1.02
					c-0.594,0.441-1.09,1.063-1.878,0.711C279.344,137.865,279.465,135.104,278.644,133.658z"/>
			</g>
			<path style="fill:#233332;" d="M285.823,132.256c0,0.531-0.43,0.961-0.961,0.961c-0.531,0-0.961-0.43-0.961-0.961
				c0-0.531,0.43-0.961,0.961-0.961C285.393,131.294,285.823,131.725,285.823,132.256z"/>
			<path style="fill:#233332;" d="M292.281,132.822c0,0.531-0.43,0.961-0.961,0.961c-0.531,0-0.961-0.43-0.961-0.961
				s0.43-0.961,0.961-0.961C291.851,131.861,292.281,132.292,292.281,132.822z"/>
			<g>
				<path style="fill:#E6817D;" d="M286.835,130.87c0.263,0.591,0.128,1.274,0.052,1.904c-0.153,1.265-0.512,2.519-0.802,3.761
					c-0.211,0.906-0.867,2.394-0.523,3.309c0.145,0.387,0.573,0.686,0.979,0.732c0.998,0.114,1.61-1.017,1.918-1.79l0.364-0.852
					c0.401-0.94,0.522-1.975,0.347-2.982l-0.711-4.083H286.835z"/>
				<path style="fill:none;stroke:#AA3F37;stroke-linecap:round;stroke-linejoin:round;stroke-miterlimit:10;" d="M286.835,130.87
					c0.263,0.591,0.128,1.274,0.052,1.904c-0.153,1.265-0.512,2.519-0.802,3.761c-0.211,0.906-0.867,2.394-0.523,3.309
					c0.145,0.387,0.573,0.686,0.979,0.732c0.998,0.114,1.61-1.017,1.918-1.79"/>
			</g>
			<path style="fill:#F9F9F9;" d="M284.971,141.463c0.681,0.551,1.857,0.609,2.69,0.451c0.901-0.171,1.444-0.802,2.148-1.26
				c-0.153,1.354-0.522,2.643-2.08,2.958c-0.901,0.182-2.146,0.008-2.816-0.658C285.053,142.71,285.082,141.94,284.971,141.463z"/>
			<path style="fill:none;stroke:#233332;stroke-linecap:round;stroke-linejoin:round;stroke-miterlimit:10;" d="M283.21,129.411
				c0.449-0.789,1.999-0.669,2.375-0.167"/>
			<path style="fill:none;stroke:#233332;stroke-linecap:round;stroke-linejoin:round;stroke-miterlimit:10;" d="M290.169,129.786
				c0.283-0.279,0.943-0.477,1.459-0.374c0.332,0.067,1.135,0.354,1.125,0.707"/>
		</g>
	</g>
	<g>
		<g>
			<g>
				<path style="fill:#4D60A4;" d="M43.647,420.055l-5.25,14.75c0,0-20,6.25-19.75,13.5s40.5-1.25,40.5-1.25l8.5-27H43.647z"/>
				<path style="fill:#FADB81;" d="M48.064,438.055c3.776,3.583,8.543-1.263,14.31-1.25l5.273-16.75h-24l-5.25,14.75
					C38.397,434.805,43.146,433.388,48.064,438.055z"/>
				<path style="fill:none;stroke:#769494;stroke-linecap:round;stroke-linejoin:round;stroke-miterlimit:10;" d="M26.731,439.375
					c0,0,6.333-0.404,10.167,4.68"/>
				<path style="fill:none;stroke:#769494;stroke-linecap:round;stroke-linejoin:round;stroke-miterlimit:10;" d="M30.458,437.875
					c0,0,4.921-2.861,9.106,4.513"/>
				<path style="fill:none;stroke:#769494;stroke-linecap:round;stroke-linejoin:round;stroke-miterlimit:10;" d="M35.011,435.995
					c0,0,5.719-3.19,7.303,5.06"/>
			</g>
			<g>
				<path style="fill:#4D60A4;" d="M167.829,418.98l1.336,15.599c0,0,17.76,11.119,15.679,18.069
					c-2.081,6.949-38.858-11.483-38.858-11.483l-1.372-28.273L167.829,418.98z"/>
				<path style="fill:#FADB81;" d="M158.991,435.271c-4.561,2.508-7.944-3.389-13.525-4.839l-0.852-17.54l23.215,6.088l1.336,15.599
					C169.166,434.58,164.932,432.005,158.991,435.271z"/>
				<path style="fill:none;stroke:#769494;stroke-linecap:round;stroke-linejoin:round;stroke-miterlimit:10;" d="M179.291,441.96
					c0,0-6.024-1.997-11.021,1.948"/>
				<path style="fill:none;stroke:#769494;stroke-linecap:round;stroke-linejoin:round;stroke-miterlimit:10;" d="M176.066,439.563
					c0,0-4.034-4.016-9.953,2.056"/>
				<path style="fill:none;stroke:#769494;stroke-linecap:round;stroke-linejoin:round;stroke-miterlimit:10;" d="M172.139,436.59
					c0,0-4.723-4.536-8.348,3.042"/>
			</g>
			<g>
				<path style="fill:#233332;" d="M89.396,219.055c0,0-6.5,26.5-23.5,69s-27,138-27,138h37.667l47.833-115l16.915,112.5l31.423-2.5
					c0,0,18.079-90.5,5.162-138.5c-9.145-33.983-17-59-17-59L89.396,219.055z"/>
				<path style="fill:none;stroke:#769494;stroke-linecap:round;stroke-linejoin:round;stroke-miterlimit:10;" d="M124.396,311.055
					c0,0,10.631-37.218,9.464-74.436"/>
				
					<line style="fill:none;stroke:#769494;stroke-linecap:round;stroke-linejoin:round;stroke-miterlimit:10;" x1="40.246" y1="414.35" x2="81.431" y2="414.35"/>
				
					<line style="fill:none;stroke:#769494;stroke-linecap:round;stroke-linejoin:round;stroke-miterlimit:10;" x1="139.307" y1="410.226" x2="174.229" y2="412.892"/>
			</g>
			<path style="fill:none;stroke:#769494;stroke-linecap:round;stroke-linejoin:round;stroke-miterlimit:10;" d="M79.407,251.681
				c0,0,17.636-1.077,23.878-21.852"/>
			<path style="fill:none;stroke:#769494;stroke-linecap:round;stroke-linejoin:round;stroke-miterlimit:10;" d="M153.005,233.648
				c0,0,2.022,16.976,16.689,19.441"/>
			<path style="fill:none;stroke:#769494;stroke-linecap:round;stroke-linejoin:round;stroke-miterlimit:10;" d="M132.431,268.211
				c0,0,7.429-1.156,8.262-5.823c0.833-4.667,0.695-26.27,0.695-26.27"/>
		</g>
		<path style="fill:#FADB81;" d="M88.458,222.612c0,0,18.629,11.277,38.283,13.61c19.654,2.333,36.084-6.393,36.084-6.393
			l-11.179-73.024c0,0-16.19-6.27-27.348-8.5c-11.158-2.23-27.902-2.124-27.902-2.124S91.673,208.405,88.458,222.612z"/>
		<g>
			<g>
				<path style="fill:#E6817D;" d="M208.69,120.86c0.34-2.129,0.73-5.05,1.802-6.911c0.44-0.763,1.12-1.204,1.796-1.746
					c1.049-0.841,1.673-2.219,2.157-3.429c0.521-1.301,0.932-2.627,1.509-3.892c0.259-0.568,0.868-1.514,0.876-2.112
					c0.014-1.082-0.941-0.995-1.579-0.35c-0.913,0.922-0.946,2.706-1.915,3.497c-0.275,0.224-0.83,0.499-1.106,0.17
					c-0.335-0.4,0.399-1.288,0.587-1.657c0.276-0.543,3.021-5.725,0.401-5.218c-1.008,0.195-1.578,2.646-1.904,3.502
					c-0.286,0.751-0.78,3.081-1.851,3.15c-1.85,0.118,1.979-6.757-0.23-7.593c-1.547-0.586-1.886,2.315-2.126,3.232
					c-0.145,0.555-0.489,3.263-1.237,3.298c-1.092,0.052,0.542-5.712-0.927-6.622c-1.811-1.121-1.574,3.041-1.658,3.761
					c-0.168,1.448-0.53,2.838-0.858,4.266c-0.093,0.404-0.091,1.313-0.593,1.493c-1.01,0.363-1.43-2.215-1.653-2.818
					c-0.255-0.691-0.546-2.07-1.328-2.378c-0.982-0.386-1.19,0.651-1.106,1.406c0.169,1.528,0.664,2.928,0.586,4.492
					c-0.078,1.562-0.082,2.909,1.22,4.016c0.55,0.467,1.274,0.59,1.657,1.224c0.685,1.137,0.672,3.04,0.69,4.3
					c0.018,1.278-0.104,2.571-0.012,3.842c2.323,0.129,4.391,0.014,6.559-0.665C208.434,121.224,208.381,121.307,208.69,120.86z"/>
				<path style="fill:none;stroke:#D85145;stroke-linecap:round;stroke-linejoin:round;stroke-miterlimit:10;" d="M206.397,112.274
					c0,0-0.88-3.116-4.566-4.576"/>
				
					<line style="fill:none;stroke:#D85145;stroke-linecap:round;stroke-linejoin:round;stroke-miterlimit:10;" x1="212.935" y1="107.811" x2="203.887" y2="105.169"/>
			</g>
			<path style="fill:#3C4A77;" d="M143.896,229.305v10c0,0,5.5,4.5,13.25,3.75s11.015-1.538,11.015-1.538l-1.765-12.212H143.896z"/>
			<path style="fill:#3C4A77;" d="M198.896,122.978l1.125-9.264c0,0,5.875-0.409,11.75,2.841l-3,9.125L198.896,122.978z"/>
			<path style="fill:#4D60A4;" d="M130.563,150.097c0,0,6,3.375,6,15.125s-1.75,63.106,8.5,67.553s25.5,4.697,25-4.553
				s-7.25-17.5-7.5-25.5s-1.717-16.909-1.717-16.909s29.467-0.056,43.213-0.902c2.95-0.182,5.678-1.667,7.351-4.104
				c1.931-2.812,3.953-7.021,3.403-11.834c-0.871-7.62-4.965-28.893-3.035-40.534c0.445-2.681-1.176-5.274-3.758-6.123l-7.078-2.326
				c-2.954-0.971-6.131,0.67-7.048,3.642l-8.83,28.591c0,0-10.755,0.204-19.75-2.125c-11.75-3.042-24.002-0.334-24.002-0.334
				s5.002-2.013,5.002-4.777c0-2.764-15.75-3.514-15.75-3.514V150.097z"/>
			<path style="fill:none;stroke:#3C4A77;stroke-linecap:round;stroke-linejoin:round;stroke-miterlimit:10;" d="M138.52,154.832
				c0,0-0.7-2.952,2.791-5.069"/>
			<path style="fill:none;stroke:#3C4A77;stroke-linecap:round;stroke-linejoin:round;stroke-miterlimit:10;" d="M185.063,152.222
				c0,0,8.833,1,11.5,9.5"/>
			<path style="fill:none;stroke:#3C4A77;stroke-width:3;stroke-miterlimit:10;" d="M156.029,202.722c0,0,9.008,7.68,11.317,15.002"
				/>
		</g>
		<g>
			<path style="fill:#AA3F37;" d="M136.146,128.974c0,0,2.25-3.044,4-2.044c1.75,1,0.25,6.375-2.625,6.5L136.146,128.974z"/>
			<path style="fill:#E6817D;" d="M117.021,133.43l-2.125,14.875c0,0,2.25,8.875,13.125,10.625c0,0,3.625,0.375,3.875-7.5
				c0,0-1.5-12.75-1-16.25L117.021,133.43z"/>
			<path style="fill:#AA3F37;" d="M131.774,150.346c-0.266-2.418-0.883-8.362-0.969-12.299l-13.678-1.225
				C117.127,147.305,127.771,150.346,131.774,150.346z"/>
			<path style="fill:#E6817D;" d="M138.229,131.722c-0.833-6.667,3-17.333-9.667-19.167c0,0-10.5-1.833-12.167,6.333
				c-0.435,2.129-0.783,5.007-0.785,8.082c-1.003-0.762-2.348-1.245-3.84-0.291c-2.878,1.842,0.607,8.119,4.593,7.54
				c1.156,5.04,3.82,9.47,9.199,10.835C136.729,147.888,139.063,138.388,138.229,131.722z"/>
			<g>
				<path style="fill:#233332;" d="M128.988,127.851c0,0.62-0.503,1.123-1.123,1.123c-0.62,0-1.123-0.503-1.123-1.123
					c0-0.62,0.503-1.123,1.123-1.123C128.485,126.728,128.988,127.231,128.988,127.851z"/>
				<path style="fill:none;stroke:#233332;stroke-linecap:round;stroke-linejoin:round;stroke-miterlimit:10;" d="M125.896,124.93
					c0.583-0.604,2.333-0.875,3.375-0.104"/>
				<path style="fill:#233332;" d="M136.675,128.274c0,0.62-0.503,1.123-1.123,1.123c-0.62,0-1.123-0.503-1.123-1.123
					c0-0.62,0.503-1.123,1.123-1.123C136.172,127.151,136.675,127.654,136.675,128.274z"/>
				<path style="fill:none;stroke:#233332;stroke-linecap:round;stroke-linejoin:round;stroke-miterlimit:10;" d="M137.234,125.447
					c-0.549-0.636-2.281-1.004-3.364-0.293"/>
				<path style="fill:none;stroke:#D85145;stroke-linecap:round;stroke-linejoin:round;stroke-miterlimit:10;" d="M132.459,127.18
					c-0.693,1.074,0.68,3.884,1.059,5.017c0.259,0.772,0.742,2.112,0.305,2.925c-0.605,1.126-1.545-0.016-1.926-0.692"/>
				<g>
					<path style="fill:#233332;" d="M133.396,137.055c-1.852,0.262-3.613-0.157-5.362-0.83c-0.956-0.368-1.896-0.705-2.514-1.522
						c-0.28,0.846-0.041,2.278,0.25,3.087c0.583,1.619,2.118,2.655,3.831,2.578c1.627-0.073,3.417-1.416,3.733-3.045
						C133.319,137.411,133.367,137.417,133.396,137.055z"/>
					<path style="fill:#F9F9F9;" d="M131.438,138.184c0.165-0.23,0.233-0.759,0.323-1.037c0.003-0.011,0.008-0.023,0.011-0.034
						c-1.27-0.073-2.507-0.415-3.738-0.888c-0.956-0.367-1.896-0.705-2.514-1.522c-0.142,0.428-0.15,1.006-0.087,1.577
						c1.393,0.974,2.993,1.7,4.675,2.005C130.523,138.361,131.174,138.551,131.438,138.184z"/>
				</g>
			</g>
			<path style="fill:#233332;" d="M134.897,110.805c-1.308-1.034-3.015-1.209-4.579-1.664c-1.141-0.332-2.351-0.656-3.554-0.457
				c-1.02,0.169-2.058,0.543-3.092,0.618c0.543,0.11,1.105,0.277,1.615,0.483c-2.32,0.195-4.304,0.243-6.205,1.87
				c-0.901,0.772-1.705,2.257-2.844,2.667c0.441,0.394,1.079,0.764,1.575,1.315c0.018-0.015,0.041-0.023,0.06-0.037
				c-0.676,0.858-1.2,1.932-1.477,3.287c-0.435,2.129-0.783,5.007-0.785,8.082c-0.051-0.039,0.967,0.461,1.842,2.022
				c0.468,0.836,0.967,1.807,1.633,2.478c-0.03-2.321-0.459-4.467,0.497-6.727c0.525-1.24,1.206-2.363,1.251-3.752
				c0.046-1.421-0.274-2.817-0.132-4.244c0.061-0.611,0.153-1.107,0.358-1.614c0.39,0.045,0.756,0.107,1.068,0.168
				c1.467,0.288,2.816,1.087,4.135,1.753c2.236,1.128,4.706,1.747,7.215,1.75c1.341,0.002,3.186-0.177,3.602-1.648
				C137.678,115.048,136.583,112.138,134.897,110.805z"/>
		</g>
		<g>
			<g>
				<path style="fill:#E6817D;" d="M61.04,77.942c0.365-2.124,0.937-5.015,0.523-7.123c-0.17-0.864-0.672-1.501-1.137-2.232
					c-0.722-1.135-0.867-2.64-0.935-3.942c-0.073-1.399-0.035-2.788-0.173-4.17c-0.062-0.622-0.333-1.713-0.148-2.281
					c0.335-1.029,1.211-0.639,1.608,0.178c0.567,1.168,0.023,2.866,0.685,3.928c0.188,0.301,0.625,0.74,0.992,0.517
					c0.446-0.271,0.038-1.348-0.021-1.758c-0.086-0.603-1.013-6.393,1.303-5.068c0.891,0.51,0.641,3.014,0.673,3.929
					c0.028,0.803-0.256,3.168,0.736,3.578c1.713,0.708,0.306-7.034,2.667-7.113c1.654-0.056,1.039,2.8,0.97,3.745
					c-0.042,0.573-0.589,3.246,0.107,3.521c1.017,0.401,1.329-5.581,3.013-5.969c2.076-0.477,0.509,3.387,0.356,4.095
					c-0.308,1.425-0.414,2.857-0.563,4.314c-0.042,0.412-0.337,1.272,0.08,1.605c0.839,0.67,2.068-1.635,2.474-2.135
					c0.465-0.572,1.184-1.783,2.024-1.822c1.054-0.049,0.916,1,0.594,1.688c-0.653,1.392-1.573,2.558-2.003,4.063
					c-0.43,1.504-0.86,2.78-2.45,3.408c-0.671,0.265-1.397,0.148-1.963,0.625c-1.015,0.855-1.616,2.661-2.039,3.848
					c-0.429,1.204-0.731,2.467-1.227,3.64c-2.24-0.627-4.161-1.403-5.994-2.745C61.164,78.369,61.188,78.465,61.04,77.942z"/>
				<path style="fill:none;stroke:#D85145;stroke-linecap:round;stroke-linejoin:round;stroke-miterlimit:10;" d="M65.979,70.555
					c0,0,1.838-2.666,5.797-2.859"/>
				
					<line style="fill:none;stroke:#D85145;stroke-linecap:round;stroke-linejoin:round;stroke-miterlimit:10;" x1="61.229" y1="64.222" x2="70.646" y2="64.638"/>
			</g>
			<path style="fill:#3C4A77;" d="M57.896,82.805V72.68c0,0,3.75-2.5,14,2.25l-2.333,11.875L57.896,82.805z"/>
			<path style="fill:#3C4A77;" d="M80.229,223.555l-3.667,8c0,0,4.833,5.833,13.167,6.333c12.686,0.761,20,2.167,20,2.167l3.5-11.5
				L80.229,223.555z"/>
			<path style="fill:#4D60A4;" d="M118.381,149.246c3.39-5.431-0.474-11.525-5.652-12.424c-6.333-1.1-10-3.392-10-3.392l0.902,5.894
				c-1.807-0.501-3.786-0.943-5.986-1.269c-13.5-2-27.25-15.077-27.25-15.077s2.25-15.673,1.5-25.673
				c-0.338-4.503-0.27-7.789-0.093-10.042c0.19-2.422-1.245-4.673-3.509-5.554l-7.362-2.863c-3.249-1.264-6.851,0.751-7.445,4.186
				c-0.596,3.451-1.515,7.501-2.841,10.273c-2.443,5.108-15.738,28.96-15.52,48.769c0.047,4.279,2.376,8.201,6.132,10.252
				c5.178,2.829,13.327,7.047,20.889,9.978c16.77,6.5,28,18,28,18s-1.5,22.75-11.23,35.25c-7.291,9.367,5.817,14.428,10.98,15.5
				c7.5,1.557,23.961,6.25,27.231-5C120.258,215.281,127.222,173.11,118.381,149.246z"/>
			<path style="fill:none;stroke:#3C4A77;stroke-linecap:round;stroke-linejoin:round;stroke-miterlimit:10;" d="M103.632,139.324
				c0,0,7.764,3.398,10.431,9.731"/>
			
				<line style="fill:none;stroke:#3C4A77;stroke-linecap:round;stroke-linejoin:round;stroke-miterlimit:10;" x1="70.396" y1="122.978" x2="68.729" y2="138.388"/>
			<path style="fill:none;stroke:#3C4A77;stroke-width:3;stroke-miterlimit:10;" d="M86.935,214.888c0,0,5.167-12.667,12-17.5"/>
		</g>
	</g>
	<g>
		<g>
			<path style="fill:#E78C60;" d="M146.801,184.159c0,0,2.023-7.293,1.902-8.217c-0.211-1.613-2.893-3.559-4.001-4.837
				c-1.226-1.413-2.047-3.073-3.291-4.383c-0.533-0.561-4.342-3.712-2.786-4.456c1.394-0.667,3.871,3.145,5.365,3.489
				c-1.251-1.346-3.821-4.593-3.6-6.879c0.057-0.595,0.816-0.835,1.218-0.393c0.937,1.032,2.194,2.563,2.711,3.495
				c-0.547-0.878-3.385-5.696-1.527-6.171c1.293-0.33,3.943,6.806,6.05,7.182c0.252-2.041-1.575-6.651-0.33-7.461
				c1.873-1.218,2.079,3.109,2.297,4.051c0.503,2.168,1.58,4.963,3.398,6.354c-0.372-3.011,2.014-6.861,3.033-4.777
				c0.253,0.517-0.475,2.277-0.43,2.999c0.099,1.613,0.765,3.108,0.84,4.726c0.135,2.9-1.354,4.454-2.298,6.929
				c-1.107,2.901-1.343,9.136-1.343,9.136L146.801,184.159z"/>
			<path style="fill:none;stroke:#D85145;stroke-linecap:round;stroke-linejoin:round;stroke-miterlimit:10;" d="M152.418,172.321
				c-1.247-1.59,0.849-5.007,1.333-6.333"/>
			<path style="fill:none;stroke:#D85145;stroke-linecap:round;stroke-linejoin:round;stroke-miterlimit:10;" d="M145.251,168.154
				c0.591-1.171,1.734-2.02,2.704-2.881c0.926-0.822,2.746-2.56,3.712-2.702"/>
		</g>
		<g>
			<path style="fill:#D85145;" d="M256.543,149.052c-0.035-0.356-0.368-0.727-0.543-1.042c-0.454-0.818-0.639-1.731-0.741-2.655
				c-0.119-1.086-0.112-2.152,0.043-3.233c0.029-0.205,0.107-1.204,0.365-1.341c0.71-0.377,0.907,2.893,0.919,3.298
				c-0.244-0.668-0.092-1.753,0.049-2.455c0.155-0.769,0.472-0.608,0.627,0.044c0.327,1.372,0.493,2.823,0.762,4.214
				c-0.155-0.531-0.151-1.152-0.105-1.715c0.036-0.438-0.059-1.314,0.384-1.617c0.578-0.395,0.654,0.762,0.728,1.135
				c0.3,1.501,0.801,2.984,1.679,4.252c0.462,0.668,1.107,1.219,1.355,2.017c0.238,0.767,0.276,1.603,0.39,2.391
				c-0.532-0.117-1.143-0.451-1.694-0.626c-0.97-0.308-1.908-0.61-2.767-1.169c-0.406-0.264-0.764-0.541-1.066-0.916
				C256.823,149.503,256.672,149.204,256.543,149.052z"/>
			<path style="fill:#E78C60;" d="M264.584,161.385c-0.464-2.123-3.143-5.607-5.068-7.165c-3.435-2.779-6.131-3.601-6.626-8.465
				c-0.093-0.918-0.004-1.939-0.13-2.87c-0.114-0.848-0.579-1.574-0.475-2.475c1.895-0.49,2.419,3.979,3.174,5.142
				c0.969,1.492,2.98,3.524,4.609,4.382c0.063,0.061,0.061,0.062-0.005,0.005c-0.972-1.108-2.646-4.179-1.021-5.387
				c0.937,1.47,0.835,2.091,2.667,2.917c1.123,0.506,2.708,0.625,4.458,2.333c1.287,1.256,1.282,4.045,2.171,5.592
				c1.018,1.771,2.247,4.209,3.162,5.991H264.584z"/>
		</g>
		<g>
			<path style="fill:#E78C60;" d="M136.334,410.904l-7.333,27c0,0-9.839,2.66-18.224,5.488c-3.035,1.023-2.303,5.506,0.9,5.506
				h29.149c1.3,0,2.453-0.832,2.864-2.064l11.978-35.929H136.334z"/>
			<polygon style="fill:#D85145;" points="134.566,417.415 152.963,419.016 155.668,410.904 136.334,410.904 			"/>
			<path style="fill:#233332;" d="M122.898,439.627c-3.49,1.014-7.982,2.369-12.122,3.765c-3.035,1.023-2.303,5.506,0.9,5.506
				h29.149c1.3,0,2.453-0.832,2.864-2.064l1.674-5.02C130.241,446.578,124.506,441.633,122.898,439.627z"/>
			<path style="fill:none;stroke:#F9F9F9;stroke-linecap:round;stroke-linejoin:round;stroke-miterlimit:10;" d="M136.01,443.741"/>
			<path style="fill:none;stroke:#F9F9F9;stroke-linecap:round;stroke-linejoin:round;stroke-miterlimit:10;" d="M142.556,419.301"
				/>
		</g>
		<g>
			<path style="fill:#E78C60;" d="M216.501,410.904l-5.667,27c0,0,9.839,2.66,18.224,5.488c3.035,1.023,2.303,5.506-0.9,5.506
				H199.01c-1.299,0-2.453-0.832-2.864-2.064l1.022-35.929H216.501z"/>
			<polygon style="fill:#D85145;" points="196.998,416.864 215.342,416.427 216.501,410.904 197.168,410.904 			"/>
			<path style="fill:#233332;" d="M216.937,439.627c3.49,1.014,7.982,2.369,12.122,3.765c3.035,1.023,2.303,5.506-0.9,5.506H199.01
				c-1.299,0-2.453-0.832-2.864-2.064l0.165-5.783C211.432,445.815,215.329,441.633,216.937,439.627z"/>
		</g>
		<path style="fill:#769494;" d="M166.512,274.488l74.832,0.082c0,0-1.933-18.26-2.897-29.053
			c-0.964-10.793-1.389-18.941-1.389-18.941l-59.373,0.821C177.685,227.397,182.024,250.571,166.512,274.488z"/>
		<g>
			<path style="fill:#3C4A77;" d="M227.899,248.488l-13.427-1.138l-30.412-2.612c0,0-8.256,8.239-17.592,36.5
				c-9.336,28.261-25.954,94.888-35.877,134.5h30.93l40.331-107.266l-13.601,104.766h31.75c0,0,8.059-83,14.809-114
				C240.464,273.271,227.899,248.488,227.899,248.488z"/>
			<path style="fill:none;stroke:#233332;stroke-linecap:round;stroke-linejoin:round;stroke-miterlimit:10;" d="M201.852,308.471
				c0,0,17.427-27.892,15.788-57.229"/>
			<path style="fill:none;stroke:#233332;stroke-linecap:round;stroke-linejoin:round;stroke-miterlimit:10;" d="M217.237,264.041
				c0,0,6.013-1.95,5.193-13.468"/>
			
				<line style="fill:none;stroke:#233332;stroke-linecap:round;stroke-linejoin:round;stroke-miterlimit:10;" x1="133.301" y1="404.915" x2="165.14" y2="406.113"/>
			
				<line style="fill:none;stroke:#233332;stroke-linecap:round;stroke-linejoin:round;stroke-miterlimit:10;" x1="189.492" y1="403.681" x2="220.485" y2="402.93"/>
		</g>
		<path style="fill:#D85145;" d="M184.06,244.738c0,0,30.941,11.667,43.839,3.75c0,0,10.353-33.402,7.661-40.5
			c-3.297-8.692-6.597-19.329-17.026-20.75c0,0-22.224-4-27.724,1.5s-9.25,14.5-4.75,30.75S184.06,244.738,184.06,244.738z"/>
		<g>
			<path style="fill:#9BB9B9;" d="M216.56,186.922c0,0,16,21.066,15,45.316s-5.251,56-5.251,56s10.501-2,15.251-11.25
				c0,0-6-54.167-4.5-62.167c0,0,48.75,8.583,55,2.167c6.25-6.417,6.25-19-0.75-29.5s-18-31.483-18-31.483l-11.5,1.58l8.89,34.653
				c0,0-21.14-1-30.64-3S227.899,184.363,216.56,186.922z"/>
			<path style="fill:none;stroke:#769494;stroke-linecap:round;stroke-linejoin:round;stroke-miterlimit:10;" d="M272.251,199.428
				l-1.551-7.191c0,0,7.301,3.25,9.801,8.25"/>
			
				<line style="fill:none;stroke:#769494;stroke-linecap:round;stroke-linejoin:round;stroke-miterlimit:10;" x1="237.06" y1="214.821" x2="238.251" y2="202.488"/>
		</g>
		<g>
			<path style="fill:#E78C60;" d="M205.39,171.169l-2.653,17.75c0,0,5.36,9.061,9.764,9.319c2.04,0.12,3.623-4.5,4.514-7.694
				l0.625-17.145L205.39,171.169z"/>
			<path style="fill:#D85145;" d="M205.793,175.631c0,0-2.153,13.163,11.222,14.913l0.375-13.25L205.793,175.631z"/>
			<path style="fill:#E78C60;" d="M218.543,154.949c-5.091-0.85-10.267,4.331-12.185,11.836c-0.19-0.482-0.693-2.464-3.19-1.714
				c-1.796,0.539-2.333,6.917,2.434,7.603c-0.026,6.917,3.066,12.563,7.754,13.346c5.538,0.925,11.189-5.281,12.622-13.861
				C227.409,163.579,224.081,155.874,218.543,154.949z"/>
			<g>
				<path style="fill:#233332;" d="M214.09,170.484c0-0.457,0.371-0.828,0.828-0.828c0.457,0,0.828,0.371,0.828,0.828
					c0,0.457-0.371,0.828-0.828,0.828C214.46,171.312,214.09,170.942,214.09,170.484z"/>
				<path style="fill:#233332;" d="M221.215,172.57c0-0.457,0.371-0.828,0.828-0.828c0.457,0,0.828,0.371,0.828,0.828
					s-0.371,0.828-0.828,0.828C221.585,173.398,221.215,173.027,221.215,172.57z"/>
				<path style="fill:none;stroke:#233332;stroke-linecap:round;stroke-linejoin:round;stroke-miterlimit:10;" d="M213.209,167.113
					c0,0,2.333-1.792,4.181,0.25"/>
				<path style="fill:none;stroke:#233332;stroke-linecap:round;stroke-linejoin:round;stroke-miterlimit:10;" d="M221.626,168.696
					c0,0,2.292-0.667,2.917,1.789"/>
				<path style="fill:none;stroke:#D85145;stroke-linecap:round;stroke-linejoin:round;stroke-miterlimit:10;" d="M219.91,168.942
					c-1.173,1.788-0.475,3.765-0.81,5.76c-0.101,0.6-0.457,1.755-1.214,1.788c-0.308,0.014-0.632-0.208-0.836-0.43
					c-0.126-0.137-0.287-0.524-0.341-0.532"/>
				<path style="fill:none;stroke:#D85145;stroke-linecap:round;stroke-linejoin:round;stroke-miterlimit:10;" d="M213.207,177.686
					c0.464,0.501,1.041,0.917,1.583,1.219c0.935,0.521,1.811,0.828,2.88,0.884"/>
			</g>
			<path style="fill:#233332;" d="M204.348,165.396c0,0,0.108,1.279,0.583,2.273c0.476,0.994,1.542,2.167,1.542,2.167l2.878-7.975
				c0.671-1.364,1.868-2.393,3.321-2.842c1.472-0.455,3.48-0.898,5.578-0.829c1.286,0.043,2.52,0.492,3.549,1.265
				c1.309,0.984,3.121,2.654,4.176,4.949c0,0,0.732,4.433-0.239,8.995c0,0,1.695-0.639,1.987-2.914
				c0.292-2.274,0.264-7.19-0.417-9.441c-0.542-1.792-1.5-6.292-9.542-7.292c-2.44-0.303-4.538,0.085-6.176,0.66
				c-2.284,0.802-4.057,2.635-4.92,4.897L204.348,165.396z"/>
		</g>
		<g>
			<path style="fill:#9BB9B9;" d="M203.156,186.111c0,0-12.004-0.761-19.004,4.432c-7,5.194-30.715,20.086-30.715,20.086
				l3.122-31.392h-11.387c0,0-21.363,34-19.363,66.5c0,0,5,4.75,12,0s39.719-21.75,39.719-21.75s0.719,12.75,0,18.75
				c-0.719,6-11.017,31.75-11.017,31.75s10.048,15,30.048,18.25c0,0,1.859-44.214,7.788-58.667
				C211.527,216.571,203.156,186.111,203.156,186.111z"/>
			<g>
				<path style="fill:none;stroke:#769494;stroke-linecap:round;stroke-linejoin:round;stroke-miterlimit:10;" d="M202.737,214.778
					l-0.419,4.431c0,0-4.859-0.082-6.928,1.731c-0.829,0.727-1.639,1.274-2.312,1.668c-0.953,0.559-2.147,0.477-3-0.225l0,0
					c-1.77-1.457-3.735-2.659-5.839-3.569l-1.654-0.716l0.435-4.605L202.737,214.778z"/>
				<path style="fill:#769494;" d="M190.606,218.256c0.052-0.55,0.54-0.954,1.09-0.902c0.55,0.052,0.954,0.54,0.902,1.09
					c-0.052,0.55-0.54,0.953-1.09,0.902C190.958,219.294,190.554,218.806,190.606,218.256z"/>
				<path style="fill:none;stroke:#769494;stroke-linecap:round;stroke-linejoin:round;stroke-miterlimit:10;" d="M182.912,218.239
					l-0.605,10.623c-0.128,2.243,1.191,4.317,3.277,5.152l3.862,1.547c1.343,0.538,2.836,0.569,4.201,0.088l3.503-1.236
					c1.886-0.665,3.227-2.348,3.455-4.334l1.249-10.865"/>
			</g>
			<path style="fill:none;stroke:#769494;stroke-linecap:round;stroke-linejoin:round;stroke-miterlimit:10;" d="M153.438,210.629
				c0,0,0.063,5.358-4.187,13.108"/>
		</g>
		<path style="fill:#233332;" d="M202.273,170.129c-0.466,0.097-0.655,2.758-1.083,3.515c-1.78,3.147-4.727,5.642-7.242,8.202
			c-4.204,4.28-9.312,8.571-11.138,14.486c-2.951,9.562,2.326,17.515,9.51,23.369c2.737,2.23,7.018,5.02,7.143,9.027
			c1.445-2.712,3.6-5.288,4.819-8.271c1.357-3.322,1.295-6.833,1.553-10.334c0.571,0.59,1.151,1.463,1.7,2.105
			c0.297-2.888,1.004-5.72,0.666-8.677c-0.337-2.942-1.273-5.566-2.515-8.212c-0.944-2.013-1.81-4.286-2.278-6.476
			c-0.415-1.939-0.089-4.164,0.248-6.087c0.601-3.426,1.218-6.898,1.761-10.27C204.348,172.222,202.938,171.738,202.273,170.129z"/>
	</g>
	<g>
		<g>
			<g>
				<path style="fill:#AA3F37;" d="M359.082,418.461l-2.946,30.546l29.13,1.805c1.998,0.124,2.919-2.44,1.298-3.615l-13.691-9.929
					l5.236-20.849L359.082,418.461z"/>
				<polygon style="fill:#852B22;" points="378.11,416.419 359.082,418.461 358.599,423.47 376.046,424.638 				"/>
				<path style="fill:#233332;" d="M379.978,442.421c-2.112,5.231-17.617,0.792-23.113-0.97l-0.729,7.557l29.13,1.805
					c1.998,0.124,2.918-2.44,1.298-3.615L379.978,442.421z"/>
			</g>
			<path style="fill:#007F7A;" d="M378.489,251.956l10.083-1.083c0,0,21,57.75-9.042,169.083h-25.502c0,0,5.016-18.937,1.786-37.333
				c-3.229-18.396,6.143-43.333,6.143-43.333s-32.382-55.333-14.426-87.333H378.489z"/>
			<g>
				<path style="fill:#AA3F37;" d="M346.013,391.436l-16.199,32.769l28.729,12.996c1.824,0.825,3.595-1.245,2.497-2.919
					l-10.122-15.437l13.097-18.779L346.013,391.436z"/>
				<polygon style="fill:#852B22;" points="340.745,402.095 359.806,406.102 364.015,400.067 346.013,391.436 				"/>
				<path style="fill:#233332;" d="M356.044,426.662c-4.081,4.41-17.84-5.872-22.646-9.705l-3.583,7.249l28.729,12.996
					c1.824,0.825,3.595-1.245,2.497-2.919L356.044,426.662z"/>
			</g>
			<g>
				<path style="fill:#00918C;" d="M344.207,251.956c0,0-19.448,27.667-8.666,47.167c10.782,19.5,35.98,39.5,35.98,39.5
					s-18.956,6.5-22.206,30.5s-8.693,27.698-8.693,27.698l24.214,6.802c0,0,47.205-49,46.595-63.5
					c-0.609-14.5-32.943-88.167-32.943-88.167H344.207z"/>
				
					<line style="fill:none;stroke:#007F7A;stroke-linecap:round;stroke-linejoin:round;stroke-miterlimit:10;" x1="344.122" y1="391.11" x2="371.861" y2="396.113"/>
				<path style="fill:none;stroke:#007F7A;stroke-linecap:round;stroke-linejoin:round;stroke-miterlimit:10;" d="M355.815,393.219
					l30.576-54.497c0,0-50.602-41.144-34.65-73.739"/>
				<path style="fill:none;stroke:#007F7A;stroke-linecap:round;stroke-linejoin:round;stroke-miterlimit:10;" d="M349.399,286.101
					c0,0,11.067-1.898,10.681-20.305"/>
			</g>
		</g>
		<path style="fill:#233332;" d="M341.796,150.178c-9.613,0.882-6.24,8.061-9.52,10.928c-1.505,1.316-3.155,2.643-3.439,4.648
			c-0.299,2.109,0.807,3.974-0.794,5.83c-1.306,1.514-2.963,1.84-3.592,3.872c-0.636,2.055,0.609,3.927-0.242,5.918
			c-0.801,1.874-2.155,2.949-2.495,5.089c-0.305,1.919-1.147,5.895,0.227,7.493c2.896,3.368,8.155,5.5,13.597,4.833
			c5.648-0.692,14.73-4.099,20.274-3.833c8.974,0.43,19.604,3.871,26.294-5.022c1.075-1.428,1.682-2.781,1.705-4.487
			c0.029-2.196-1.515-3.267-1.844-5.19c-0.412-2.408,1.971-4.828,1.846-7.37c-0.137-2.78-2.243-4.751-4.92-5.914
			c-1.727-0.75-4.88-1.213-5.791-3.024c-1.081-2.151,0.828-4.484-1.117-6.581c-1.871-2.017-4.466-1.274-6.883-2.052
			c-2.468-0.794-2.156-1.956-2.882-3.828c-1.072-2.767-3.953-2.088-6.565-3.362c-2.733-1.333-7.801-2.683-9.46,0.121
			C344.989,150.29,342.897,149.981,341.796,150.178z"/>
		<g>
			<path style="fill:#AA3F37;" d="M394.323,146.123c-2.812-3.003-5.987-6.046-7.125-6.164c-2.227-0.231-5.405,0.155-7.427-0.75
				c-0.121-1.647,0.169-3.283,0.123-4.951c-0.039-1.423-0.648-2.708-0.699-3.965c-0.072-1.798,0.899-0.787,1.98-1.463
				c1.223-0.765,1.929-2.056,3.076-2.917c2.252-1.688,5.416,0.116,7.29,1.783c1.258,1.119,0.168,2.206,0.791,3.579
				c0.46,1.014,1.923,0.839,2.517,2.008c0.359,0.707,0.131,1.36,0.32,2.122c0.133,0.536,2.975,3.411,5.709,6.551L394.323,146.123z"
				/>
			<path style="fill:none;stroke:#852B22;stroke-linecap:round;stroke-linejoin:round;stroke-miterlimit:10;" d="M380.822,132.956
				c2.041-0.42,3.587-2.109,5.338-3.15c1.616-0.961,1.63,1.028,1.206,2.15c-0.315,0.834-0.926,1.551-1.679,2.006
				c2.102-0.539,5.752-0.105,5.552,2.827"/>
			<path style="fill:none;stroke:#852B22;stroke-linecap:round;stroke-linejoin:round;stroke-miterlimit:10;" d="M388.155,133.54
				c1.691-1.287,3.764-2.394,4.75-4.417"/>
		</g>
		<g>
			<path style="fill:#FADB81;" d="M421.322,149.79c-7.002-2.751-11.279-5.324-13.65-7.014c-1.222-0.871-2.731-1.164-4.16-0.874
				l-2.691-4.055l-10.583,7.193l3.59,2.992c-0.565,1.23-0.683,2.659-0.209,4.019l0.461,1.323
				c1.565,14.917,11.127,22.48,11.127,22.48l-43.25,14.062l-10.886,0.208c0,0-18.262,1.026-26.131,12.094
				c-7.869,11.067-19.869,22.079-19.869,22.079s-8.75-7.541-17-6.607c-1.04,0.118-2.047,0.498-2.999,1.089
				c-3.18-0.254-6.562,1.429-8.561,4.605c-2.582,4.102-1.933,9.215,1.368,11.826c0.117,3.723,1.225,7.413,3.691,10.359
				c8,9.555,31.5,19.055,42.25,14.055s17.216-20.5,17.216-20.5s3.716,9.5,0,15.75c-3.716,6.25,15.034,12,31.034,10.75
				s21.325-8.193,17.5-14.75c-7.946-13.622,8.486-28.499,5.844-39.915c13.999-5.525,35.003-14.813,41.792-23.152
				C447.708,174.909,435.322,155.29,421.322,149.79z"/>
			<path style="fill:none;stroke:#E6817D;stroke-linecap:round;stroke-linejoin:round;stroke-miterlimit:10;" d="M395.646,212.367
				c-0.154-1.658-0.674-3.25-1.691-4.763c-3.684-5.482-9.254-8.779-16.818-13.407"/>
			<path style="fill:none;stroke:#E6817D;stroke-linecap:round;stroke-linejoin:round;stroke-miterlimit:10;" d="M341.038,239.123
				c0,0,1.586-15.596-1.732-20.798"/>
			<path style="fill:none;stroke:#E6817D;stroke-linecap:round;stroke-linejoin:round;stroke-miterlimit:10;" d="M305.072,224.296
				c0,0,10.083,4.327,12.75,13.494"/>
			<path style="fill:none;stroke:#E6817D;stroke-linecap:round;stroke-linejoin:round;stroke-miterlimit:10;" d="M405.208,175.854
				c0,0,9.614,1.103,12.448,4.52"/>
		</g>
		<g>
			<path style="fill:#AA3F37;" d="M280.438,232.4c-2.722-1.795-10.772-6.402-10.772-6.402c-1.849-0.381-4.315-0.556-5.96-1.513
				c-2.39-1.39-0.927-5.311,0.08-7.195c1.175-2.199,0.319-2.869,0-5.116c-0.392-2.758,1.342-3.082,3.485-2.622
				c1.658,0.356,1.291-0.349,2.734-0.976c0.895-0.389,1.341-0.048,2.191,0.512c0.908,0.598,1.658,1.442,2.558,2.079
				c1.094,0.774,2.268,1.167,2.842,2.447c0.726,1.618,0.413,3.539,0.925,5.177c0.923,2.952,7.039,7.062,7.039,7.062
				C287.057,230.345,283.387,233.511,280.438,232.4z"/>
			<path style="fill:none;stroke:#852B22;stroke-linecap:round;stroke-linejoin:round;stroke-miterlimit:10;" d="M268.572,209.436
				c-0.022,0.347-0.309,0.919-0.415,1.32c-0.156,0.592-0.285,1.19-0.452,1.781c-0.252,0.891-0.649,2.045-0.272,2.946
				c0.308,0.736,1.533,1.634,2.052,0.578c0.414-0.842,0.535-1.816,0.994-2.647c-0.311,1.227-0.454,2.807,0.044,4.006
				c0.633,1.523,2.35,2.69,3.985,2.828"/>
			<path style="fill:none;stroke:#852B22;stroke-linecap:round;stroke-linejoin:round;stroke-miterlimit:10;" d="M270.78,217.915
				c0.166,0.203,0.122,0.707,0.125,0.974c0.008,0.681-0.023,1.352-0.104,2.026c-0.162,1.348-0.867,3.282-2.521,3.292"/>
		</g>
		<g>
			<path style="fill:none;stroke:#FADB81;stroke-linecap:round;stroke-linejoin:round;stroke-miterlimit:10;" d="M360.177,173.017
				c2.845-1.4,6.376-0.659,8.394,1.946c2.306,2.977,1.763,7.259-1.214,9.565c-2.977,2.306-7.259,1.763-9.565-1.214
				c-2.076-2.679-1.843-6.417,0.396-8.819"/>
			<path style="fill:#AA3F37;" d="M361.813,192.252l-2.703-15.833l-11.578-0.565l1.646,15.923c-1.646,0.263-2.77,1.331-2.94,2.18
				c-0.75,3.75,4.244,6.086,9.127,7.186c4.882,1.1,9.369-0.355,10.021-3.249C365.834,195.907,364.359,193.76,361.813,192.252z"/>
			<path style="fill:#852B22;" d="M361.958,193.1L361.958,193.1l-2.848-16.682l-11.578-0.565
				C347.532,175.854,352.344,188.16,361.958,193.1z"/>
			<path style="fill:#AA3F37;" d="M363.275,169.546c0.255-2.672-0.32-5.461-1.667-7.708c-0.154-0.058-0.306-0.103-0.451-0.103
				c-1.006-0.004-1.711,0.026-2.755-0.265c-1.159-0.323-1.602-0.595-2.541,0.194c-1.106,0.93-2.923,0.494-4.254,0.143
				c-0.875-0.231-2.494-1.153-3.316-0.425c-0.393,0.348-0.363,0.961-0.335,1.483c0.027,0.51,0.151,0.987-0.064,1.502
				c-0.181,0.433-0.703,0.677-0.787,1.107c-0.148,0.76,0.64,1.57,0.568,2.391c-0.047,0.542-0.416,0.865-0.496,1.352
				c-0.262,1.603,1.442,2.687,1.609,4.112c0.168,1.429-1.949,0.387-2.455-0.157c-0.349-0.375-0.569-0.919-1.042-1.147
				c-0.5-0.241-1.125-0.059-1.641-0.191c-0.617-0.157-1.191-0.996-1.795-1.223c-0.06,0.081-0.124,0.15-0.182,0.241
				c-2.105,3.307,1.327,6.459,5.914,6.3c1.777,4.177,5.88,11.254,12.724,9.22C368.782,183.855,362.64,176.207,363.275,169.546z"/>
			<path style="fill:#233332;" d="M352.766,170.904c-0.187-0.417-0.001-0.907,0.416-1.094c0.417-0.187,0.907-0.001,1.094,0.416
				s0.001,0.907-0.416,1.094C353.443,171.507,352.953,171.321,352.766,170.904z"/>
			<path style="fill:#233332;" d="M359.523,169.889c-0.187-0.417-0.001-0.907,0.416-1.094c0.417-0.187,0.907-0.001,1.094,0.416
				c0.187,0.417,0.001,0.907-0.416,1.094C360.201,170.493,359.711,170.306,359.523,169.889z"/>
			<path style="fill:none;stroke:#233332;stroke-linecap:round;stroke-linejoin:round;stroke-miterlimit:10;" d="M350.527,167.114
				c0,0,1.992-1.516,4.514-0.41"/>
			<path style="fill:none;stroke:#233332;stroke-linecap:round;stroke-linejoin:round;stroke-miterlimit:10;" d="M359.068,166.3
				c0,0,1.75-1.703,4.114,0"/>
			<path style="fill:none;stroke:#852B22;stroke-linecap:round;stroke-linejoin:round;stroke-miterlimit:10;" d="M357.986,167.114
				c-0.338,2.112,1.108,3.629,1.62,5.587c0.154,0.588,0.302,1.788-0.375,2.129c-0.276,0.139-0.662,0.069-0.939-0.05
				c-0.17-0.073-0.476-0.361-0.529-0.346"/>
			<path style="fill:none;stroke:#D85145;stroke-linecap:round;stroke-linejoin:round;stroke-miterlimit:10;" d="M359.904,178.48
				c-1.045,0.233-1.972,0.173-3.012-0.079c-0.603-0.146-1.27-0.391-1.852-0.75c0.478-0.055,0.769-0.364,1.181-0.61
				c0.529-0.316,0.654-0.279,1.215-0.063c0.151,0.058,0.48,0.277,0.635,0.271c0.299-0.011,0.205-0.146,0.459-0.275
				c0.437-0.221,0.776-0.333,1.205,0.017C360.115,177.303,360.194,178.04,359.904,178.48z"/>
			<path style="fill:none;stroke:#FADB81;stroke-linecap:round;stroke-linejoin:round;stroke-miterlimit:10;" d="M346.297,176.266
				c3.107,0.636,5.444,3.385,5.444,6.679c0,3.765-3.052,6.818-6.818,6.818c-3.765,0-6.818-3.053-6.818-6.818
				c0-3.39,2.474-6.202,5.714-6.729"/>
		</g>
	</g>
	<g>
		<g>
			<path style="fill:#E6817D;" d="M407.694,137.007c0.707-4.053,1.777-14.242,2.665-14.964c1.737-1.413,4.607-2.831,5.802-4.696
				c-0.801-1.444-1.94-2.653-2.816-4.075c-0.746-1.212-0.941-2.621-1.588-3.7c-0.925-1.543-1.184-0.166-2.458-0.139
				c-1.442,0.031-2.74-0.663-4.171-0.754c-2.809-0.179-4.467,3.064-5.121,5.486c-0.439,1.625,1.068,1.938,1.299,3.427
				c0.171,1.1-1.149,1.755-1.005,3.059c0.087,0.788,0.635,1.21,0.895,1.95c0.183,0.521-0.701,10.388-1.269,14.512L407.694,137.007z"
				/>
			<path style="fill:none;stroke:#D85145;stroke-linecap:round;stroke-linejoin:round;stroke-miterlimit:10;" d="M414.856,117.289
				c-2.041-0.42-3.587-2.109-5.338-3.15c-1.616-0.961-1.63,1.028-1.206,2.15c0.315,0.834,0.926,1.551,1.679,2.006
				c-2.102-0.539-5.752-0.105-5.552,2.827"/>
			<path style="fill:none;stroke:#D85145;stroke-linecap:round;stroke-linejoin:round;stroke-miterlimit:10;" d="M407.522,117.872
				c-1.691-1.287-3.764-2.394-4.75-4.417"/>
		</g>
		<g>
			<path style="fill:#E6817D;" d="M468.448,127.323c0.364-2.881,1.915-14.994,1.915-14.994c0.814-1.47,2.125-3.24,2.432-4.907
				c0.445-2.421-3.053-3.705-4.911-4.116c-2.168-0.48-2.125-1.448-3.459-2.966c-1.638-1.864-2.862-0.879-3.793,0.837
				c-0.72,1.328-0.984,0.671-2.244,1.283c-0.781,0.38-0.81,0.879-0.924,1.778c-0.122,0.96,0.014,1.957-0.077,2.934
				c-0.111,1.188-0.525,2.21,0.007,3.34c0.673,1.429,2.154,2.33,2.964,3.626c1.461,2.335,0.694,12.853,0.694,12.853
				C463.222,130.608,467.489,129.962,468.448,127.323z"/>
			
				<path style="fill:none;stroke:#D85145;stroke-width:0.8906;stroke-linecap:round;stroke-linejoin:round;stroke-miterlimit:10;" d="
				M459.799,101.99c0.247,0.187,0.801,0.324,1.133,0.485c0.491,0.238,0.97,0.497,1.465,0.727c0.749,0.346,1.759,0.747,2.149,1.524
				c0.319,0.635,0.216,1.984-0.799,1.722c-0.809-0.208-1.538-0.69-2.366-0.862c1.01,0.501,2.161,1.32,2.683,2.352
				c0.663,1.31,0.456,3.148-0.397,4.333"/>
			
				<path style="fill:none;stroke:#D85145;stroke-width:0.8906;stroke-linecap:round;stroke-linejoin:round;stroke-miterlimit:10;" d="
				M464.252,108.398c0.041,0.23,0.407,0.492,0.586,0.649c0.456,0.4,0.927,0.768,1.43,1.104c1.005,0.672,2.722,1.317,3.687,0.204"/>
		</g>
		<g>
			<path style="fill:#E6817D;" d="M460.227,412.137c0,0,9.75,20.25,10.5,33c0,0-10.394,5-29.572,3.5c0,0-6.178-2.591,2.822-6.795
				s9.75-5.976,9.75-5.976l-7.5-21.479L460.227,412.137z"/>
			<path style="fill:#AA3F37;" d="M460.227,412.137l-14,2.25l5.56,15.922l15.314-1.141
				C464.056,420.092,460.227,412.137,460.227,412.137z"/>
			<path style="fill:#4D60A4;" d="M441.155,448.637c19.178,1.5,29.572-3.5,29.572-3.5c-0.064-1.09-0.198-2.237-0.382-3.42
				c-3.993,0.489-8.468,1.044-12.368,1.42c-8.5,0.819-9.591-3.499-9.591-3.499l-0.003,0.001c-1.19,0.645-2.633,1.375-4.406,2.203
				C434.977,446.046,441.155,448.637,441.155,448.637z"/>
		</g>
		<g>
			<path style="fill:#E6817D;" d="M412.179,410.637l-9.042,29.989c0,0-10.42,10.146-9.076,17.637
				c1.139,6.346,16.246-6.617,20.836-10.727c0.855-0.766,1.522-1.714,1.951-2.78l13.713-34.119H412.179z"/>
			<polygon style="fill:#AA3F37;" points="429.893,412.297 422.115,410.637 412.179,410.637 406.181,430.527 422.566,430.527 			"/>
			<path style="fill:#4D60A4;" d="M399.445,444.816c-2.849,3.64-6.181,9.009-5.385,13.446c1.139,6.346,16.246-6.617,20.836-10.727
				c0.855-0.766,1.522-1.714,1.951-2.78l0.931-2.315c-2.154,2.069-5.268,4.371-9.05,5.196
				C403.778,448.718,400.857,446.461,399.445,444.816z"/>
		</g>
		<path style="fill:#233332;" d="M419.046,191.208c-0.246-3.673-2.512-8.367-1.723-13.006c0.833-4.902,2.82-8.981,7.084-11.645
			c9.453-5.906,16.529-2.06,23.758,5.455c7.152,7.435,8.683,17.692,12.435,26.916c3.635,8.937,11.71,15.603,16.651,23.688
			c5.314,8.695,8.054,25.314-3.796,29.847c-3.083,1.179-6.567,0.866-9.806,1.396c-4.667,0.765-8.934,2.897-13.363,4.387
			c-5.326,1.791-10.203,4.396-15.705,5.774c-6.869,1.72-18.313,2.095-23.871-3.333c-7.807-7.626,0.683-24.63,4.171-32.357
			c5.375-11.908,7.483-23.703,5.078-36.164C419.88,192.45,419.773,192.725,419.046,191.208z"/>
		<g>
			<path style="fill:#D85145;" d="M420.763,258.117c0,0-19.618,18.956-20.339,37.947c-1.781,46.948,45.7,107.141,44.228,131.842
				l27.217-2.392c0,0-6.655-50.551-25.466-85.439c0,0,24.408-42.46,15.046-78.981L420.763,258.117z"/>
			<path style="fill:#D85145;" d="M434.96,259.156l-30.973,168.75h28.889c0,0,10.079-78.349,20.994-95.551
				c10.915-17.202,19.168-30.286,7.58-71.261L434.96,259.156z"/>
			<path style="fill:none;stroke:#AA3F37;stroke-linecap:round;stroke-linejoin:round;stroke-miterlimit:10;" d="M416.29,360.877
				c0,0,6.362-90.155,12.724-102.156"/>
			
				<line style="fill:none;stroke:#AA3F37;stroke-linecap:round;stroke-linejoin:round;stroke-miterlimit:10;" x1="436.293" y1="404.398" x2="441.155" y2="376.519"/>
			
				<path style="fill:none;stroke:#AA3F37;stroke-width:0.8908;stroke-linecap:round;stroke-linejoin:round;stroke-miterlimit:10;" d="
				M447.227,266.534c0,0,8.159,20.359,19.829,29.106"/>
			<path style="fill:none;stroke:#AA3F37;stroke-linecap:round;stroke-linejoin:round;stroke-miterlimit:10;" d="M423.366,258.307
				c0,0-7.076,21.286,0.999,21.286"/>
			
				<line style="fill:none;stroke:#AA3F37;stroke-linecap:round;stroke-linejoin:round;stroke-miterlimit:10;" x1="406.096" y1="416.419" x2="434.472" y2="416.419"/>
			
				<line style="fill:none;stroke:#AA3F37;stroke-linecap:round;stroke-linejoin:round;stroke-miterlimit:10;" x1="443.069" y1="416.957" x2="469.977" y2="413.943"/>
		</g>
		<g>
			<path style="fill:#3C4A77;" d="M461.887,240.904c2.707-18.729,13.361-30.406,8.908-57.067c-3.15-18.857,1-59.824,1-59.824
				h-13.361c-8.805,13.094-10.634,54.302-11.807,68.508c-0.339,4.11-3.775,7.266-7.899,7.266c0,0-3.921,0.848-7.516,2.761
				c-19.652-11.529-20.979-70.804-20.979-70.804h-13.955l-1.485,25.314c-5.242,33.731,13.482,57.191,22.469,66.274
				c-0.435,0.781-0.815,1.609-1.101,2.518c-2.078,6.621,2.672,8.522,4.751,14.758c1.084,3.251-1.061,12.636-3.363,20.875
				c-2.113,7.564,43.984,5.968,43.9-0.388C461.313,250.651,461.887,240.904,461.887,240.904z"/>
			
				<path style="fill:none;stroke:#233332;stroke-width:0.8908;stroke-linecap:round;stroke-linejoin:round;stroke-miterlimit:10;" d="
				M416.161,225.849c2.078-6.621,8.908-9.271,9.204-16.26"/>
			
				<path style="fill:none;stroke:#233332;stroke-width:0.8908;stroke-linecap:round;stroke-linejoin:round;stroke-miterlimit:10;" d="
				M425.366,239.387c0,0,9.677-1.75,17.019,1"/>
			
				<line style="fill:none;stroke:#233332;stroke-width:0.8908;stroke-linecap:round;stroke-linejoin:round;stroke-miterlimit:10;" x1="446.758" y1="190.83" x2="445.227" y2="209.589"/>
		</g>
		<g>
			<path style="fill:#E6817D;" d="M431.384,204.424l0.885-11.028l10.116-3.331l1.54,7.403c0.454,2.18-0.238,4.441-1.832,5.994
				l-8.023,9.71L431.384,204.424z"/>
			<path style="fill:#D85145;" d="M442.385,190.065l-10.116,3.331l-0.885,11.028C442.385,200.634,442.385,190.065,442.385,190.065z"
				/>
			<path style="fill:#E6817D;" d="M445.853,182.039l-3.469,3.712c-1.639-2.631-5.306-3.326-8.891-4.491
				c-4.454-1.447-5.679-4.788-5.679-4.788c-1.322,7.49-4.235,10.04-4.298,10.094c0.025,0.293,0.046,0.585,0.085,0.881
				c0.98,7.459,5.939,12.958,11.078,12.283c3.583-0.471,6.578-4.246,7.705-9.665C448.443,187.927,445.853,182.039,445.853,182.039z"
				/>
			<g>
				<path style="fill:none;stroke:#233332;stroke-linecap:round;stroke-linejoin:round;stroke-miterlimit:10;" d="M435.378,182.555
					c0,0-2.502-1.548-4.135,0.669"/>
				<path style="fill:none;stroke:#233332;stroke-linecap:round;stroke-linejoin:round;stroke-miterlimit:10;" d="M427.218,184.314
					c0,0-2.179-0.973-3.133,1.374"/>
				<path style="fill:none;stroke:#D85145;stroke-linecap:round;stroke-linejoin:round;stroke-miterlimit:10;" d="M428.858,184.512
					c1.083,1.844,0.288,3.783,0.523,5.793c0.071,0.604,0.369,1.775,1.124,1.846c0.307,0.029,0.642-0.176,0.856-0.388
					c0.132-0.13,0.312-0.509,0.367-0.515"/>
				<path style="fill:#F9F9F9;" d="M430.852,193.83c1.071-0.003,2.206-0.605,3.166-1.079c0.556-0.275,1.153-0.661,1.641-1.139
					c0,0,1.067,3.395-2.348,4.437L430.852,193.83z"/>
				<path style="fill:none;stroke:#D85145;stroke-linecap:round;stroke-linejoin:round;stroke-miterlimit:10;" d="M427.768,186.548
					c-0.712-0.319-2.127,0.414-2.458,1"/>
				<path style="fill:none;stroke:#D85145;stroke-linecap:round;stroke-linejoin:round;stroke-miterlimit:10;" d="M434.59,184.814
					c-0.628-0.463-2.167-0.047-2.615,0.455"/>
			</g>
		</g>
	</g>
</g>
</svg>
